<svg xmlns="http://www.w3.org/2000/svg" viewBox="0 0 300 90"><defs><clipPath id="a"><path d="M9.152 9H23v9H9.152Zm0 0"/></clipPath><clipPath id="b"><path d="M9.152 14H26v67H9.152Zm0 0"/></clipPath><clipPath id="c"><path d="M69 9h13.5v72H69Zm0 0"/></clipPath></defs><g style="fill:#1e293b;fill-opacity:1"><path d="M16.953-4.672H6.828L4.891 0H-.281l9.719-21.812h5L24.188 0H18.89Zm-1.578-3.844-3.469-8.343-3.453 8.343Zm0 0" style="stroke:none" transform="translate(90.322 42.164)"/></g><g style="fill:#1e293b;fill-opacity:1"><path d="M12.281.375Q7.606.375 5-2.203q-2.594-2.592-2.594-7.39v-12.22h5.047V-9.78c0 3.906 1.617 5.86 4.86 5.86q2.373 0 3.609-1.423 1.249-1.419 1.25-4.437v-12.031h4.984v12.218q0 4.8-2.61 7.39Q16.953.377 12.282.376m0 0" style="stroke:none" transform="translate(113.723 42.164)"/></g><g style="fill:#1e293b;fill-opacity:1"><path d="M2.594-21.812H12.5q3.545 0 6.281 1.359c1.82.898 3.235 2.168 4.235 3.812 1.007 1.637 1.515 3.547 1.515 5.735 0 2.18-.508 4.09-1.515 5.734q-1.502 2.454-4.235 3.813Q16.045 0 12.5 0H2.594Zm9.656 17.67q3.28 0 5.219-1.828 1.951-1.826 1.953-4.937 0-3.122-1.953-4.938-1.939-1.828-5.219-1.828H7.64V-4.14Zm0 0" style="stroke:none" transform="translate(138.278 42.164)"/></g><g style="fill:#1e293b;fill-opacity:1"><path d="M2.594-21.812H7.64V0H2.594Zm0 0" style="stroke:none" transform="translate(164.016 42.164)"/></g><g style="fill:#1e293b;fill-opacity:1"><path d="M7.11-17.703H.124v-4.11H19.14v4.11h-6.985V0H7.11Zm0 0" style="stroke:none" transform="translate(174.237 42.164)"/></g><g style="fill:#1e293b;fill-opacity:1"><path d="M13.031.375q-3.345 0-6.047-1.453Q4.295-2.53 2.75-5.094q-1.533-2.578-1.531-5.812-.002-3.246 1.531-5.813 1.546-2.575 4.234-4.015 2.703-1.454 6.079-1.453c1.882 0 3.593.335 5.124 1a10 10 0 0 1 3.844 2.859l-3.234 2.984c-1.48-1.695-3.309-2.547-5.485-2.547q-2.032 0-3.624.891a6.34 6.34 0 0 0-2.47 2.484q-.89 1.582-.89 3.61 0 2.016.89 3.61a6.34 6.34 0 0 0 2.47 2.484q1.592.89 3.624.89 3.264.001 5.485-2.594l3.234 3a10.05 10.05 0 0 1-3.86 2.891q-2.314.998-5.14 1m0 0" style="stroke:none" transform="translate(193.182 42.164)"/></g><g style="fill:#1e293b;fill-opacity:1"><path d="M16.953-4.672H6.828L4.891 0H-.281l9.719-21.812h5L24.188 0H18.89Zm-1.578-3.844-3.469-8.343-3.453 8.343Zm0 0" style="stroke:none" transform="translate(215.587 42.164)"/></g><g style="fill:#1e293b;fill-opacity:1"><path d="m16.484 0-4.203-6.078h-4.64V0H2.594v-21.812h9.437q2.906.001 5.031.968 2.138.954 3.297 2.735 1.156 1.782 1.157 4.203 0 2.438-1.172 4.203-1.172 1.75-3.328 2.687L21.906 0Zm-.093-13.906c0-1.219-.399-2.156-1.188-2.813q-1.172-.984-3.453-.984H7.64v7.61h4.11q2.28 0 3.453-1 1.186-.997 1.188-2.813m0 0" style="stroke:none" transform="translate(239.456 42.164)"/></g><g style="fill:#1e293b;fill-opacity:1"><path d="M19.484-4.047V0H2.594v-21.812h16.484v4.046H7.61v4.735h10.125v3.922H7.61v5.062Zm0 0" style="stroke:none" transform="translate(262.359 42.164)"/></g><g style="fill:#1e293b;fill-opacity:1"><path d="M7.953-2.344H2.875L1.875 0H-.078L4.5-10.156h1.844L10.938 0h-1.97Zm-.625-1.484L5.406-8.266l-1.89 4.438Zm0 0" style="stroke:none" transform="translate(89.634 71.302)"/></g><g style="fill:#1e293b;fill-opacity:1"><path d="M4.734.094q-1.206.002-2.156-.5a3.7 3.7 0 0 1-1.5-1.406Q.546-2.715.547-3.875q0-1.139.531-2.031a3.77 3.77 0 0 1 1.5-1.407q.95-.515 2.156-.515 1.155 0 2.016.469.856.455 1.297 1.328l-1.39.812a2.2 2.2 0 0 0-.829-.797 2.2 2.2 0 0 0-1.094-.28q-1.02.002-1.687.671-.673.658-.672 1.75 0 1.111.656 1.766.67.656 1.703.656.591.002 1.094-.266.5-.263.828-.797l1.39.797A3.16 3.16 0 0 1 6.735-.375q-.862.47-2 .469m0 0" style="stroke:none" transform="translate(100.412 71.302)"/></g><g style="fill:#1e293b;fill-opacity:1"><path d="M4.734.094q-1.206.002-2.156-.5a3.7 3.7 0 0 1-1.5-1.406Q.546-2.715.547-3.875q0-1.139.531-2.031a3.77 3.77 0 0 1 1.5-1.407q.95-.515 2.156-.515 1.155 0 2.016.469.856.455 1.297 1.328l-1.39.812a2.2 2.2 0 0 0-.829-.797 2.2 2.2 0 0 0-1.094-.28q-1.02.002-1.687.671-.673.658-.672 1.75 0 1.111.656 1.766.67.656 1.703.656.591.002 1.094-.266.5-.263.828-.797l1.39.797A3.16 3.16 0 0 1 6.735-.375q-.862.47-2 .469m0 0" style="stroke:none" transform="translate(108.713 71.302)"/></g><g style="fill:#1e293b;fill-opacity:1"><path d="M4.672.094q-1.173.002-2.125-.5a3.64 3.64 0 0 1-1.469-1.406Q.546-2.715.547-3.875q0-1.139.531-2.031a3.7 3.7 0 0 1 1.469-1.407q.952-.515 2.125-.515 1.186 0 2.125.516a3.6 3.6 0 0 1 1.469 1.406c.351.593.53 1.273.53 2.031q-.002 1.159-.53 2.063a3.54 3.54 0 0 1-1.47 1.406c-.624.336-1.335.5-2.124.5m0-1.547q.995 0 1.64-.656.657-.67.657-1.766 0-1.077-.657-1.75c-.43-.445-.976-.672-1.64-.672-.668 0-1.219.227-1.656.672-.43.45-.641 1.031-.641 1.75 0 .73.21 1.32.64 1.766q.656.656 1.657.656m0 0" style="stroke:none" transform="translate(117.014 71.302)"/></g><g style="fill:#1e293b;fill-opacity:1"><path d="M8.688-7.75V0H6.953v-.984q-.421.515-1.078.797a3.5 3.5 0 0 1-1.406.28q-1.55.002-2.453-.859-.891-.856-.891-2.562V-7.75h1.813v4.188q0 1.047.468 1.562c.32.336.77.5 1.344.5.656 0 1.172-.195 1.547-.594q.576-.609.578-1.734V-7.75Zm0 0" style="stroke:none" transform="translate(126.358 71.302)"/></g><g style="fill:#1e293b;fill-opacity:1"><path d="M5.578-7.828q1.465.002 2.344.86.89.844.89 2.53V0H7v-4.203q-.002-1.015-.484-1.531-.47-.516-1.36-.516-1.003 0-1.578.61-.58.595-.578 1.718V0H1.188v-7.75h1.734v1q.434-.527 1.125-.797a4 4 0 0 1 1.531-.281m0 0" style="stroke:none" transform="translate(136.224 71.302)"/></g><g style="fill:#1e293b;fill-opacity:1"><path d="M5.844-.422a1.9 1.9 0 0 1-.782.39 3.6 3.6 0 0 1-.953.126q-1.281 0-1.984-.656-.688-.67-.687-1.954v-3.718H.155v-1.453h1.282v-1.766H3.25v1.765h2.078v1.454H3.25v3.687c0 .375.086.664.266.86q.28.297.812.296.607 0 1.016-.328Zm0 0" style="stroke:none" transform="translate(146.147 71.302)"/></g><g style="fill:#1e293b;fill-opacity:1"><path d="M1.188-7.75H3V0H1.188Zm.921-1.266c-.336 0-.617-.101-.843-.312a1.03 1.03 0 0 1-.328-.781q0-.469.328-.766.339-.311.843-.312c.32 0 .594.101.813.296a.95.95 0 0 1 .344.735q0 .486-.328.812a1.13 1.13 0 0 1-.829.328m0 0" style="stroke:none" transform="translate(152.29 71.302)"/></g><g style="fill:#1e293b;fill-opacity:1"><path d="M5.578-7.828q1.465.002 2.344.86.89.844.89 2.53V0H7v-4.203q-.002-1.015-.484-1.531-.47-.516-1.36-.516-1.003 0-1.578.61-.58.595-.578 1.718V0H1.188v-7.75h1.734v1q.434-.527 1.125-.797a4 4 0 0 1 1.531-.281m0 0" style="stroke:none" transform="translate(156.476 71.302)"/></g><g style="fill:#1e293b;fill-opacity:1"><path d="M8.875-7.75v6.578q0 4.092-4.172 4.094a7.5 7.5 0 0 1-2.125-.297Q1.577 2.343.922 1.813l.812-1.36q.515.42 1.282.672c.52.164 1.047.25 1.578.25Q5.87 1.373 6.469.797c.394-.387.593-.973.593-1.766v-.406c-.312.336-.695.59-1.14.766a3.8 3.8 0 0 1-1.453.265q-1.112 0-2-.468a3.65 3.65 0 0 1-1.406-1.329Q.547-2.996.547-4.109q0-1.092.516-1.938a3.45 3.45 0 0 1 1.406-1.312q.889-.47 2-.47.841 0 1.531.282c.457.18.844.453 1.156.828V-7.75Zm-4.14 5.86q1.031 0 1.687-.61c.445-.414.672-.953.672-1.61 0-.644-.227-1.171-.672-1.577q-.657-.61-1.688-.61-1.032 0-1.703.61-.656.61-.656 1.578 0 .986.656 1.609.67.61 1.703.61m0 0" style="stroke:none" transform="translate(166.472 71.302)"/></g><g style="fill:#1e293b;fill-opacity:1"><path d="M8.969.156 7.703-1.078Q6.277.14 4.297.14C3.586.14 2.953.023 2.39-.203q-.846-.342-1.328-.953a2.27 2.27 0 0 1-.47-1.406c0-.633.18-1.188.548-1.657.375-.476.972-.953 1.797-1.422q-.611-.608-.876-1.14a2.5 2.5 0 0 1-.25-1.094q0-1.078.797-1.734.81-.657 2.141-.657 1.23 0 1.969.61.75.595.75 1.625-.002.783-.485 1.39-.486.612-1.593 1.235l2.187 2.078q.375-.702.578-1.703l1.453.484c-.187.899-.492 1.668-.906 2.313L9.97-1.016ZM4.75-8.969c-.398 0-.71.102-.937.297a.96.96 0 0 0-.344.766q0 .362.187.672.187.299.719.843.873-.48 1.219-.828.341-.358.343-.781 0-.45-.312-.703-.314-.265-.875-.266m-.328 7.64c.844 0 1.578-.257 2.203-.78L3.938-4.672q-.862.487-1.22.922a1.52 1.52 0 0 0-.359 1q0 .645.563 1.031.575.391 1.5.39m0 0" style="stroke:none" transform="translate(180.525 71.302)"/></g><g style="fill:#1e293b;fill-opacity:1"><path d="M6.063.14Q4.528.142 3.28-.53a4.93 4.93 0 0 1-1.937-1.86Q.64-3.576.64-5.078q0-1.482.703-2.672a5.04 5.04 0 0 1 1.953-1.875c.82-.445 1.75-.672 2.781-.672.832 0 1.586.149 2.266.438a4.8 4.8 0 0 1 1.75 1.265l-1.219 1.14C8.133-8.241 7.227-8.64 6.156-8.64a3.8 3.8 0 0 0-1.86.454A3.3 3.3 0 0 0 3-6.922q-.469.813-.469 1.844c0 .687.156 1.305.469 1.844A3.26 3.26 0 0 0 4.297-1.97c.55.305 1.172.453 1.86.453 1.07 0 1.976-.398 2.718-1.203l1.219 1.172A4.7 4.7 0 0 1 8.344-.28Q7.31.14 6.063.14m0 0" style="stroke:none" transform="translate(194.75 71.302)"/></g><g style="fill:#1e293b;fill-opacity:1"><path d="M4.672.094q-1.173.002-2.125-.5a3.64 3.64 0 0 1-1.469-1.406Q.546-2.715.547-3.875q0-1.139.531-2.031a3.7 3.7 0 0 1 1.469-1.407q.952-.515 2.125-.515 1.186 0 2.125.516a3.6 3.6 0 0 1 1.469 1.406c.351.593.53 1.273.53 2.031q-.002 1.159-.53 2.063a3.54 3.54 0 0 1-1.47 1.406c-.624.336-1.335.5-2.124.5m0-1.547q.995 0 1.64-.656.657-.67.657-1.766 0-1.077-.657-1.75c-.43-.445-.976-.672-1.64-.672-.668 0-1.219.227-1.656.672-.43.45-.641 1.031-.641 1.75 0 .73.21 1.32.64 1.766q.656.656 1.657.656m0 0" style="stroke:none" transform="translate(204.993 71.302)"/></g><g style="fill:#1e293b;fill-opacity:1"><path d="M10.969-7.828q1.452 0 2.312.844c.57.562.86 1.414.86 2.547V0h-1.813v-4.203q0-1.015-.453-1.531c-.305-.344-.734-.516-1.297-.516q-.907 0-1.469.61c-.367.398-.546.968-.546 1.718V0H6.75v-4.203q0-1.015-.453-1.531-.439-.516-1.281-.516-.925.002-1.47.594Q2.999-5.06 3-3.922V0H1.188v-7.75h1.734v1Q3.343-7.277 4-7.547a3.65 3.65 0 0 1 1.453-.281q.873 0 1.547.328c.445.219.8.54 1.063.953q.482-.61 1.234-.937a4 4 0 0 1 1.672-.344m0 0" style="stroke:none" transform="translate(214.337 71.302)"/></g><g style="fill:#1e293b;fill-opacity:1"><path d="M5.484-7.828q1.125.001 2.016.5.89.487 1.39 1.39.516.891.516 2.063c0 .781-.172 1.477-.515 2.078A3.54 3.54 0 0 1 7.5-.39q-.891.486-2.016.485Q3.92.094 3-.937v3.75H1.188V-7.75h1.734v1.016q.435-.545 1.094-.813a3.8 3.8 0 0 1 1.468-.281m-.203 6.375q.996 0 1.64-.656.64-.67.641-1.766 0-1.077-.64-1.75c-.43-.445-.977-.672-1.64-.672-.438 0-.837.102-1.188.297-.344.2-.621.484-.828.86q-.299.55-.297 1.265-.002.737.297 1.281.311.551.828.844c.351.2.75.297 1.187.297m0 0" style="stroke:none" transform="translate(229.591 71.302)"/></g><g style="fill:#1e293b;fill-opacity:1"><path d="M1.188-10.766H3V0H1.188Zm0 0" style="stroke:none" transform="translate(239.53 71.302)"/></g><g style="fill:#1e293b;fill-opacity:1"><path d="M1.188-7.75H3V0H1.188Zm.921-1.266c-.336 0-.617-.101-.843-.312a1.03 1.03 0 0 1-.328-.781q0-.469.328-.766.339-.311.843-.312c.32 0 .594.101.813.296a.95.95 0 0 1 .344.735q0 .486-.328.812a1.13 1.13 0 0 1-.829.328m0 0" style="stroke:none" transform="translate(243.716 71.302)"/></g><g style="fill:#1e293b;fill-opacity:1"><path d="M4.14-7.828q1.717 0 2.626.828c.601.543.906 1.367.906 2.469V0H5.953v-.937q-.33.502-.953.765-.61.265-1.469.266Q2.654.094 2-.203a2.4 2.4 0 0 1-1.016-.813 2.15 2.15 0 0 1-.343-1.203q0-1.044.765-1.672.779-.639 2.453-.64h2v-.11q-.002-.81-.484-1.25-.486-.435-1.453-.437-.644.002-1.281.203a3.1 3.1 0 0 0-1.063.578L.875-6.875q.609-.468 1.453-.703a6.5 6.5 0 0 1 1.813-.25m-.234 6.61q.67.002 1.203-.313.528-.31.75-.89v-.907H3.984q-1.563 0-1.562 1.031a.94.94 0 0 0 .39.797c.258.188.626.281 1.094.281m0 0" style="stroke:none" transform="translate(247.903 71.302)"/></g><g style="fill:#1e293b;fill-opacity:1"><path d="M5.578-7.828q1.465.002 2.344.86.89.844.89 2.53V0H7v-4.203q-.002-1.015-.484-1.531-.47-.516-1.36-.516-1.003 0-1.578.61-.58.595-.578 1.718V0H1.188v-7.75h1.734v1q.434-.527 1.125-.797a4 4 0 0 1 1.531-.281m0 0" style="stroke:none" transform="translate(256.696 71.302)"/></g><g style="fill:#1e293b;fill-opacity:1"><path d="M4.734.094q-1.206.002-2.156-.5a3.7 3.7 0 0 1-1.5-1.406Q.546-2.715.547-3.875q0-1.139.531-2.031a3.77 3.77 0 0 1 1.5-1.407q.95-.515 2.156-.515 1.155 0 2.016.469.856.455 1.297 1.328l-1.39.812a2.2 2.2 0 0 0-.829-.797 2.2 2.2 0 0 0-1.094-.28q-1.02.002-1.687.671-.673.658-.672 1.75 0 1.111.656 1.766.67.656 1.703.656.591.002 1.094-.266.5-.263.828-.797l1.39.797A3.16 3.16 0 0 1 6.735-.375q-.862.47-2 .469m0 0" style="stroke:none" transform="translate(266.692 71.302)"/></g><g style="fill:#1e293b;fill-opacity:1"><path d="M8.469-3.828c0 .125-.012.305-.031.531H2.359q.154.86.829 1.36.685.501 1.687.5 1.265 0 2.094-.844l.984 1.125a3.3 3.3 0 0 1-1.328.937c-.531.211-1.133.313-1.797.313q-1.282.002-2.25-.5a3.6 3.6 0 0 1-1.5-1.406Q.546-2.715.547-3.875q0-1.124.516-2.031a3.65 3.65 0 0 1 1.421-1.407q.92-.515 2.063-.515 1.139.001 2.031.5a3.6 3.6 0 0 1 1.39 1.406q.5.91.5 2.094M4.547-6.375q-.86 0-1.469.516c-.398.343-.64.797-.734 1.359H6.75q-.128-.844-.719-1.36-.595-.515-1.484-.515m0 0" style="stroke:none" transform="translate(274.993 71.302)"/></g><path d="m23.707 15.34.672 65.383a9418 9418 0 0 1 11.195-14.485c.723-.925.805-2.14.824-3.3.27-17.551.586-35.606.84-52.079 0-.05 0-.117-.015-.168-.086-.96-1.13-1.582-2.035-1.109Zm0 0" style="stroke:none;fill-rule:nonzero;fill:#6f6ecf;fill-opacity:1"/><g clip-path="url(#a)"><path d="m9.824 14.531 10.254-4.613a1.468 1.468 0 0 1 2.067 1.363l-.051 4.364c-1.211 1.058-9.766 3.132-12.184-.305-.168-.219-.289-.656-.086-.809m0 0" style="stroke:none;fill-rule:nonzero;fill:#3f3e8a;fill-opacity:1"/></g><g clip-path="url(#b)"><path d="m24.379 16.469.64 63.144c0 .739-.62 1.313-1.363 1.262l-13.14-1.164c-.641-.05-1.13-.59-1.145-1.246l-.219-62.89c0-.723.606-1.298 1.328-1.247l12.723.91c.672.051 1.176.59 1.176 1.23m0 0" style="stroke:none;fill-rule:nonzero;fill:#595ab7;fill-opacity:1"/></g><path d="M12.563 65.176a4.06 4.06 0 0 0 .68 2.238q.217.328.5.61.275.281.605.5.332.223.695.37a4 4 0 0 0 3.77-.37q.327-.219.609-.5a4 4 0 0 0 .5-.61 3.9 3.9 0 0 0 .598-1.453 3.8 3.8 0 0 0 .078-.785q.002-.393-.078-.785a4 4 0 0 0-1.098-2.059 4 4 0 0 0-.61-.5 3.85 3.85 0 0 0-1.449-.602 4 4 0 0 0-.781-.078 4.1 4.1 0 0 0-1.539.305 4 4 0 0 0-.695.375 3.7 3.7 0 0 0-.606.5q-.281.281-.5.61c-.148.218-.27.453-.37.695a4 4 0 0 0-.31 1.539m0 0" style="stroke:none;fill-rule:nonzero;fill:#f6f3fe;fill-opacity:1"/><path d="m21.219 24.637.386 27.672c.02.843-.789 1.515-1.73 1.449l-6.656-.438c-.84-.05-1.496-.672-1.496-1.433l-.133-27.57c0-.825.773-1.497 1.715-1.45l6.386.34c.84.05 1.512.672 1.528 1.43m0 0" style="stroke:none;fill-rule:nonzero;fill:#dcd9ea;fill-opacity:1"/><path d="M18.867 28.813a.573.573 0 0 0-.539-.606l-3.933-.27a.576.576 0 0 0-.602.54c-.02.32.215.59.535.605l3.934.27c.336.02.57-.235.605-.54m-.051 4.872a.574.574 0 0 0-.539-.61l-3.93-.27c-.288-.015-.59.22-.605.54a.57.57 0 0 0 .535.61l3.934.269a.57.57 0 0 0 .605-.54m-.168 4.867a.574.574 0 0 0-.539-.609l-3.93-.27c-.288-.015-.59.22-.605.54a.57.57 0 0 0 .535.61l3.934.269c.336.015.57-.238.605-.54m-.183 4.868a.574.574 0 0 0-.54-.61l-3.933-.269a.585.585 0 0 0-.605.54.57.57 0 0 0 .539.608l3.933.27a.574.574 0 0 0 .606-.539M18.43 48.3a.57.57 0 0 0-.54-.605l-3.93-.27c-.288-.015-.589.22-.605.54-.02.32.22.59.536.605l3.933.27a.605.605 0 0 0 .606-.54m0 0" style="stroke:none;fill-rule:nonzero;fill:#c6bfe0;fill-opacity:1"/><path d="M16.582 69.203c2.438 0 4.3-2.172 3.984-4.547a4.02 4.02 0 0 1-3.984 3.52 4.03 4.03 0 0 1-4-3.52c-.305 2.39 1.578 4.547 4 4.547m0 0" style="stroke:none;fill-rule:nonzero;fill:#dcd9ea;fill-opacity:1"/><path d="M29.96 17.262v56.234c1.095-1.414 5.481-7.105 5.63-7.258.722-.925.808-2.14.824-3.3.27-17.551.59-35.606.84-52.079 0-.05 0-.117-.016-.168-1.074.641-5.832 2.579-6.62 3.52-.794.844-.657 2.09-.657 3.05m0 0" style="stroke:none;fill-rule:nonzero;fill:#3f3e8a;fill-opacity:1"/><path d="m46.719 15.34.672 65.383c.066-.102 11.109-14.368 11.191-14.485.723-.925.809-2.14.824-3.3.137-8.641.86-52.145.809-52.313a1.386 1.386 0 0 0-2.02-1.027Zm0 0" style="stroke:none;fill-rule:nonzero;fill:#fde77a;fill-opacity:1"/><path d="m32.836 14.531 10.25-4.613a1.47 1.47 0 0 1 2.07 1.363l-.05 4.364c-4.051 3.52-14.59.656-12.27-1.114m0 0" style="stroke:none;fill-rule:nonzero;fill:#ef9f27;fill-opacity:1"/><path d="m47.39 16.469.637 63.144c0 .739-.62 1.313-1.359 1.262l-13.145-1.164c-.636-.05-1.125-.59-1.144-1.246l-.219-62.89c0-.723.606-1.298 1.328-1.247l12.742.91c.657.051 1.16.59 1.16 1.23m0 0" style="stroke:none;fill-rule:nonzero;fill:#f8c73b;fill-opacity:1"/><path d="M35.574 65.176q.002.398.078.785a3.9 3.9 0 0 0 .598 1.453q.22.328.5.61.281.281.61.5a3.6 3.6 0 0 0 .695.37q.362.154.754.231c.257.05.52.078.78.078a4.1 4.1 0 0 0 1.54-.308q.362-.148.695-.372.33-.217.606-.5.281-.28.5-.609.223-.33.37-.695.154-.367.231-.758.077-.387.078-.785 0-.393-.078-.785a4 4 0 0 0-.23-.754 3.7 3.7 0 0 0-.371-.696 4 4 0 0 0-.5-.609 3.7 3.7 0 0 0-.606-.5 4 4 0 0 0-.695-.375 4.1 4.1 0 0 0-1.54-.305 4.05 4.05 0 0 0-2.23.68 4 4 0 0 0-.609.5 4 4 0 0 0-.5.61 4 4 0 0 0-.598 1.45q-.076.39-.078.784m0 0" style="stroke:none;fill-rule:nonzero;fill:#f6f3fe;fill-opacity:1"/><path d="m44.215 24.637.387 27.672c.015.843-.793 1.515-1.735 1.449l-6.656-.438c-.84-.05-1.492-.672-1.492-1.433l-.137-27.57c0-.825.773-1.497 1.715-1.45l6.387.34c.855.05 1.53.672 1.53 1.43m0 0" style="stroke:none;fill-rule:nonzero;fill:#dcd9ea;fill-opacity:1"/><path d="M41.86 28.813a.573.573 0 0 0-.54-.606l-3.93-.27a.577.577 0 0 0-.605.54c-.02.32.219.59.535.605l3.934.27c.336.02.59-.235.605-.54m-.031 4.872a.574.574 0 0 0-.539-.61l-3.934-.27c-.285-.015-.59.22-.605.54s.219.59.54.61l3.933.269c.336.015.57-.239.605-.54m-.188 4.867a.57.57 0 0 0-.535-.609l-3.933-.27c-.285-.015-.59.22-.606.54-.015.32.22.59.54.61l3.93.269a.57.57 0 0 0 .605-.54m-.168 4.868a.57.57 0 0 0-.535-.61l-3.934-.269a.58.58 0 0 0-.606.54.57.57 0 0 0 .536.608l3.933.27a.57.57 0 0 0 .606-.539m-.051 4.882a.565.565 0 0 0-.535-.605l-3.934-.27c-.285-.015-.59.22-.605.54s.218.59.539.605l3.93.27c.335 0 .59-.254.605-.54m0 0" style="stroke:none;fill-rule:nonzero;fill:#c6bfe0;fill-opacity:1"/><path d="M39.59 69.203c2.437 0 4.305-2.172 3.984-4.547a4.015 4.015 0 0 1-3.984 3.52 4.034 4.034 0 0 1-4-3.52c-.3 2.39 1.562 4.547 4 4.547m0 0" style="stroke:none;fill-rule:nonzero;fill:#dcd9ea;fill-opacity:1"/><path d="M52.836 17.242v56.406c.539-.671 5.531-7.156 5.746-7.425.723-.926.809-2.141.824-3.301.137-8.64.86-52.145.809-52.313.066.25-5.781 2.457-6.742 3.586-.754.926-.637 1.938-.637 3.047m0 0" style="stroke:none;fill-rule:nonzero;fill:#fab041;fill-opacity:1"/><g clip-path="url(#c)"><path d="m69.09 15.324.672 65.383c.082-.117 10.992-14.234 11.191-14.484.723-.926.793-2.172.824-3.301 0-.035.809-49.55.84-52.078a1.393 1.393 0 0 0-2.031-1.281Zm0 0" style="stroke:none;fill-rule:nonzero;fill:#f56357;fill-opacity:1"/></g><path d="m55.207 14.531 10.25-4.613a1.47 1.47 0 0 1 2.07 1.363l-.05 4.364c-2.844 2.44-15.247 1.144-12.27-1.114m0 0" style="stroke:none;fill-rule:nonzero;fill:#e11a17;fill-opacity:1"/><path d="m69.762 16.469.636 63.144c0 .739-.62 1.313-1.359 1.262l-13.144-1.164c-.641-.05-1.125-.59-1.145-1.246l-.219-62.89c0-.723.606-1.298 1.328-1.247l12.727.91c.672.051 1.176.59 1.176 1.23m0 0" style="stroke:none;fill-rule:nonzero;fill:#f34036;fill-opacity:1"/><path d="M57.93 65.176q-.001.398.074.785.08.391.23.758a4 4 0 0 0 .871 1.304q.282.283.61.5.329.224.691.372a4 4 0 0 0 3.77-.372q.328-.217.61-.5.282-.28.5-.609.22-.33.37-.695c.102-.246.176-.496.23-.758q.077-.387.075-.785a4 4 0 0 0-.074-.785 4.3 4.3 0 0 0-.23-.754 4 4 0 0 0-.872-1.305 4 4 0 0 0-.61-.5 4 4 0 0 0-.69-.375 4.1 4.1 0 0 0-1.54-.305 4.1 4.1 0 0 0-1.539.305 4 4 0 0 0-.691.375 4 4 0 0 0-.61.5q-.282.281-.5.61c-.148.218-.27.453-.37.695a4.3 4.3 0 0 0-.231.754 4 4 0 0 0-.074.785m0 0" style="stroke:none;fill-rule:nonzero;fill:#f6f3fe;fill-opacity:1"/><path d="M61.96 69.219c2.438 0 4.306-2.172 3.985-4.547a4.015 4.015 0 0 1-3.984 3.52 4.034 4.034 0 0 1-4-3.52c-.32 2.39 1.562 4.547 4 4.547m4.625-44.582.387 27.672c.015.843-.793 1.515-1.735 1.449l-6.656-.438c-.84-.05-1.496-.672-1.496-1.433l-.133-27.57c0-.825.774-1.497 1.715-1.45l6.387.34c.855.05 1.511.672 1.53 1.43m0 0" style="stroke:none;fill-rule:nonzero;fill:#dcd9ea;fill-opacity:1"/><path d="M63.66 29.352a.573.573 0 0 0 .031-1.145l-3.93-.27c-.288-.015-.59.22-.605.54-.02.32.219.59.535.605l3.934.27zm-.05 4.871c.3 0 .554-.239.57-.54a.57.57 0 0 0-.535-.609l-3.934-.27a.577.577 0 0 0-.606.54c-.015.32.22.59.54.61l3.93.269zm-.169 4.867a.57.57 0 0 0 .57-.54.57.57 0 0 0-.534-.609l-3.934-.27c-.285-.015-.59.22-.605.54a.57.57 0 0 0 .535.61l3.933.269zm-.168 4.867a.57.57 0 0 0 .57-.539.57.57 0 0 0-.534-.61l-3.934-.269c-.285-.016-.59.223-.605.54a.57.57 0 0 0 .535.608l3.933.27zm-.05 4.867c.3 0 .554-.238.57-.539a.565.565 0 0 0-.535-.605l-3.934-.27a.573.573 0 1 0-.066 1.145l3.93.27zm0 0" style="stroke:none;fill-rule:nonzero;fill:#c6bfe0;fill-opacity:1"/><path d="M79.746 54.617c-.773-2.527-3.683-3.148-5.379-.96-.691.894-.976 2.038-1.043 3.183-.117 2.004 1.074 5.035 3.614 4.094 2.203-.825 3.46-4.16 2.808-6.317m-.136-8.051c-.47-1.53-2.235-1.902-3.262-.574-.418.54-.586 1.246-.637 1.922-.066 1.211.656 3.047 2.184 2.477 1.363-.489 2.117-2.512 1.714-3.825m0 0" style="stroke:none;fill-rule:nonzero;fill:#fff;fill-opacity:.41"/></svg>